# xmcd CD database file
#
# Track frame offsets:
#	150
#	17358
#	35262
#	61475
#	82886
#	99810
#	118648
#	134334
#	148084
#	167128
#	183317
#	195576
#	210727
#	230374
#	253183
#
# Disc length: 3685 seconds
#
# Revision: 0
# Processed by: cddbd v1.5.2PL0 Copyright (c) Steve Scherf et al.
# Submitted via: CDex 1.70beta2
#
DISCID=c40e630f
DTITLE=Blue Rodeo - blue rodeo 
DYEAR=1900
DGENRE=Country
TTITLE0=blue rodeo  palace of gold 
TTITLE1=Blue Rodeo - holding on 
TTITLE2=Blue Rodeo - homeward bound angel 
TTITLE3=Blue Rodeo - Bulletproof
TTITLE4=Blue Rodeo - Comet
TTITLE5=Blue Rodeo - Walk like you don't mind
TTITLE6=Blue Rodeo - Love Never Lies
TTITLE7=Blue Rodeo - Stage Door
TTITLE8=Blue Rodeo - Cause for Sympathy
TTITLE9=Blue Rodeo - What a Surprise
TTITLE10=Blue Rodeo - Clearer View
TTITLE11=Blue Rodeo - Glad to be Alive
TTITLE12=Blue Rodeo - Find a way to say goodbye
TTITLE13=Blue Rodeo - Tell me baby
TTITLE14=Blue Rodeo - Bad Timing
EXTD=
EXTT0=
EXTT1=
EXTT2=
EXTT3=
EXTT4=
EXTT5=
EXTT6=
EXTT7=
EXTT8=
EXTT9=
EXTT10=
EXTT11=
EXTT12=
EXTT13=
EXTT14=
PLAYORDER=
